<svg viewBox="0 0 71 95" width="71" height="95" xmlns="http://www.w3.org/2000/svg">
    <!-- NUMBER -->
    <svg viewBox="0 0 8 8" width="8" height="8" xmlns="http://www.w3.org/2000/svg" transform="translate(6 7)">
        <path d="M1,0 L5,0 L5,1 L6,1 L6,2 L7,2 L7,5 L6,5 L6,7 L5,7 L5,8 L2,8 L2,7 L3,7 L3,6 L4,6 L4,5 L1,5 L1,4 L0,4 L0,1 L1,1 L1,0" fill="#D01D11"/>
        <path d="M3,1 L4,1 L4,2 L5,2 L5,4 L3,4 L3,3 L2,3 L2,2 L3,2 L3,1" fill="#FFFFFF"/>
    </svg>
    <!-- NUMBER -->
    <svg viewBox="0 0 8 8" width="8" height="8" xmlns="http://www.w3.org/2000/svg" transform="translate(57 80)">
        <path d="M1,0 L5,0 L5,1 L6,1 L6,2 L7,2 L7,5 L6,5 L6,7 L5,7 L5,8 L2,8 L2,7 L3,7 L3,6 L4,6 L4,5 L1,5 L1,4 L0,4 L0,1 L1,1 L1,0" fill="#D01D11"/>
        <path d="M3,1 L4,1 L4,2 L5,2 L5,4 L3,4 L3,3 L2,3 L2,2 L3,2 L3,1" fill="#FFFFFF"/>  
    </svg>

    <!-- SMALL SIMBOL -->
    <svg viewBox="0 0 8 8" width="8" height="8" xmlns="http://www.w3.org/2000/svg" transform="translate(6 17)">
        <path d="M1,0 L3,0 L3,1 L4,1 L4,0 L6,0 L6,1 L7,1 L7,3 L6,3 L6,5 L5,5 L5,7 L4,7 L4,8 L3,8 L3,7 L2,7 L2,5 L1,5 L1,3 L0,3 L0,1 L1,1" fill="#D11E12"/>
    </svg>
    <!-- SMALL SIMBOL -->
    <svg viewBox="0 0 8 8" width="8" height="8" xmlns="http://www.w3.org/2000/svg" transform="translate(57 70)">
        <path d="M1,0 L3,0 L3,1 L4,1 L4,0 L6,0 L6,1 L7,1 L7,3 L6,3 L6,5 L5,5 L5,7 L4,7 L4,8 L3,8 L3,7 L2,7 L2,5 L1,5 L1,3 L0,3 L0,1 L1,1" fill="#D11E12"/>
    </svg>

    <!-- 1 -->
    <svg viewBox="0 0 11 11" width="11" height="11" xmlns="http://www.w3.org/2000/svg" transform="translate(19 13)">
        <path d="M1,0 L4,0 L4,1 L5,1 L5,2 L6,2 L6,1 L7,1 L7,0 L10,0 L10,1 L11,1 L11,5 L10,5 L10,6 L9,6 L9,7 L8,7 L8,8 L7,8 L7,9 L6,9 L6,10 L5,10 L5,9 L4,9 L4,8 L3,8 L3,7 L2,7 L2,6 L1,6 L1,5 L1,5 L0,5 L0,1 L1,1" fill="#D11E12"/>
    </svg>

    <!-- 2 -->
    <svg viewBox="0 0 11 11" width="11" height="11" xmlns="http://www.w3.org/2000/svg" transform="translate(41 13)">
        <path d="M1,0 L4,0 L4,1 L5,1 L5,2 L6,2 L6,1 L7,1 L7,0 L10,0 L10,1 L11,1 L11,5 L10,5 L10,6 L9,6 L9,7 L8,7 L8,8 L7,8 L7,9 L6,9 L6,10 L5,10 L5,9 L4,9 L4,8 L3,8 L3,7 L2,7 L2,6 L1,6 L1,5 L1,5 L0,5 L0,1 L1,1" fill="#D11E12"/>
    </svg>

    <!-- 3 -->
    <svg viewBox="0 0 11 11" width="11" height="11" xmlns="http://www.w3.org/2000/svg" transform="translate(30 27)">
        <path d="M1,0 L4,0 L4,1 L5,1 L5,2 L6,2 L6,1 L7,1 L7,0 L10,0 L10,1 L11,1 L11,5 L10,5 L10,6 L9,6 L9,7 L8,7 L8,8 L7,8 L7,9 L6,9 L6,10 L5,10 L5,9 L4,9 L4,8 L3,8 L3,7 L2,7 L2,6 L1,6 L1,5 L1,5 L0,5 L0,1 L1,1" fill="#D11E12"/>
    </svg>

    <!-- 4 -->
    <svg viewBox="0 0 11 11" width="11" height="11" xmlns="http://www.w3.org/2000/svg" transform="translate(19 35)">
        <path d="M1,0 L4,0 L4,1 L5,1 L5,2 L6,2 L6,1 L7,1 L7,0 L10,0 L10,1 L11,1 L11,5 L10,5 L10,6 L9,6 L9,7 L8,7 L8,8 L7,8 L7,9 L6,9 L6,10 L5,10 L5,9 L4,9 L4,8 L3,8 L3,7 L2,7 L2,6 L1,6 L1,5 L1,5 L0,5 L0,1 L1,1" fill="#D11E12"/>
    </svg>

    <!-- 5 -->
    <svg viewBox="0 0 11 11" width="11" height="11" xmlns="http://www.w3.org/2000/svg" transform="translate(41 35)">
        <path d="M1,0 L4,0 L4,1 L5,1 L5,2 L6,2 L6,1 L7,1 L7,0 L10,0 L10,1 L11,1 L11,5 L10,5 L10,6 L9,6 L9,7 L8,7 L8,8 L7,8 L7,9 L6,9 L6,10 L5,10 L5,9 L4,9 L4,8 L3,8 L3,7 L2,7 L2,6 L1,6 L1,5 L1,5 L0,5 L0,1 L1,1" fill="#D11E12"/>
    </svg>

    <!-- 6 -->
    <svg viewBox="0 0 11 11" width="11" height="11" xmlns="http://www.w3.org/2000/svg" transform="translate(19 49)">
        <path d="M1,0 L4,0 L4,1 L5,1 L5,2 L6,2 L6,1 L7,1 L7,0 L10,0 L10,1 L11,1 L11,5 L10,5 L10,6 L9,6 L9,7 L8,7 L8,8 L7,8 L7,9 L6,9 L6,10 L5,10 L5,9 L4,9 L4,8 L3,8 L3,7 L2,7 L2,6 L1,6 L1,5 L1,5 L0,5 L0,1 L1,1" fill="#D11E12"/>
    </svg>

    <!-- 7 -->
    <svg viewBox="0 0 11 11" width="11" height="11" xmlns="http://www.w3.org/2000/svg" transform="translate(41 49)">
        <path d="M1,0 L4,0 L4,1 L5,1 L5,2 L6,2 L6,1 L7,1 L7,0 L10,0 L10,1 L11,1 L11,5 L10,5 L10,6 L9,6 L9,7 L8,7 L8,8 L7,8 L7,9 L6,9 L6,10 L5,10 L5,9 L4,9 L4,8 L3,8 L3,7 L2,7 L2,6 L1,6 L1,5 L1,5 L0,5 L0,1 L1,1" fill="#D11E12"/>
    </svg>

    <!-- 8 -->
    <svg viewBox="0 0 11 11" width="11" height="11" xmlns="http://www.w3.org/2000/svg" transform="translate(19 71)">
        <path d="M1,0 L4,0 L4,1 L5,1 L5,2 L6,2 L6,1 L7,1 L7,0 L10,0 L10,1 L11,1 L11,5 L10,5 L10,6 L9,6 L9,7 L8,7 L8,8 L7,8 L7,9 L6,9 L6,10 L5,10 L5,9 L4,9 L4,8 L3,8 L3,7 L2,7 L2,6 L1,6 L1,5 L1,5 L0,5 L0,1 L1,1" fill="#D11E12"/>
    </svg>

    <!-- 9 -->
    <svg viewBox="0 0 11 11" width="11" height="11" xmlns="http://www.w3.org/2000/svg" transform="translate(41 71)">
        <path d="M1,0 L4,0 L4,1 L5,1 L5,2 L6,2 L6,1 L7,1 L7,0 L10,0 L10,1 L11,1 L11,5 L10,5 L10,6 L9,6 L9,7 L8,7 L8,8 L7,8 L7,9 L6,9 L6,10 L5,10 L5,9 L4,9 L4,8 L3,8 L3,7 L2,7 L2,6 L1,6 L1,5 L1,5 L0,5 L0,1 L1,1" fill="#D11E12"/>
    </svg>
</svg>